<svg width="150" height="150" viewBox="0 0 150 150" fill="none" xmlns="http://www.w3.org/2000/svg">
<circle cx="75" cy="75" r="75" fill="#D9D9D9"/>
<path d="M21.4347 82V67.4545H26.8892C28.0066 67.4545 28.9441 67.6629 29.7017 68.0795C30.464 68.4962 31.0393 69.0691 31.4276 69.7983C31.8205 70.5227 32.017 71.3466 32.017 72.2699C32.017 73.2027 31.8205 74.0312 31.4276 74.7557C31.0346 75.4801 30.4545 76.0507 29.6875 76.4673C28.9205 76.8793 27.9759 77.0852 26.8537 77.0852H23.2386V74.919H26.4986C27.152 74.919 27.687 74.8054 28.1037 74.5781C28.5204 74.3509 28.8281 74.0384 29.027 73.6406C29.2306 73.2429 29.3324 72.786 29.3324 72.2699C29.3324 71.7538 29.2306 71.2992 29.027 70.9062C28.8281 70.5133 28.518 70.2079 28.0966 69.9901C27.6799 69.7675 27.1425 69.6562 26.4844 69.6562H24.0696V82H21.4347ZM38.7944 82.2131C37.729 82.2131 36.8058 81.9787 36.0245 81.5099C35.2433 81.0412 34.6372 80.3854 34.2063 79.5426C33.7802 78.6998 33.5671 77.715 33.5671 76.5881C33.5671 75.4612 33.7802 74.474 34.2063 73.6264C34.6372 72.7789 35.2433 72.1207 36.0245 71.652C36.8058 71.1832 37.729 70.9489 38.7944 70.9489C39.8597 70.9489 40.783 71.1832 41.5643 71.652C42.3455 72.1207 42.9492 72.7789 43.3754 73.6264C43.8062 74.474 44.0217 75.4612 44.0217 76.5881C44.0217 77.715 43.8062 78.6998 43.3754 79.5426C42.9492 80.3854 42.3455 81.0412 41.5643 81.5099C40.783 81.9787 39.8597 82.2131 38.7944 82.2131ZM38.8086 80.1534C39.3862 80.1534 39.8692 79.9948 40.2575 79.6776C40.6457 79.3556 40.9345 78.9247 41.1239 78.3849C41.3181 77.8452 41.4151 77.2438 41.4151 76.581C41.4151 75.9134 41.3181 75.3097 41.1239 74.7699C40.9345 74.2254 40.6457 73.7921 40.2575 73.4702C39.8692 73.1482 39.3862 72.9872 38.8086 72.9872C38.2167 72.9872 37.7243 73.1482 37.3313 73.4702C36.9431 73.7921 36.6519 74.2254 36.4577 74.7699C36.2683 75.3097 36.1737 75.9134 36.1737 76.581C36.1737 77.2438 36.2683 77.8452 36.4577 78.3849C36.6519 78.9247 36.9431 79.3556 37.3313 79.6776C37.7243 79.9948 38.2167 80.1534 38.8086 80.1534ZM51.0334 82.2131C49.9396 82.2131 48.995 81.9858 48.1996 81.5312C47.4089 81.072 46.8004 80.4233 46.3743 79.5852C45.9482 78.7424 45.7351 77.7505 45.7351 76.6094C45.7351 75.4872 45.9482 74.5024 46.3743 73.6548C46.8052 72.8026 47.4065 72.1397 48.1783 71.6662C48.95 71.188 49.8568 70.9489 50.8984 70.9489C51.5708 70.9489 52.2053 71.0578 52.8018 71.2756C53.4032 71.4886 53.9335 71.8201 54.3928 72.2699C54.8568 72.7197 55.2214 73.2926 55.4865 73.9886C55.7517 74.6799 55.8842 75.5038 55.8842 76.4602V77.2486H46.9425V75.5156H53.4197C53.415 75.0232 53.3085 74.5852 53.1001 74.2017C52.8918 73.8134 52.6006 73.508 52.2266 73.2855C51.8572 73.063 51.4264 72.9517 50.9339 72.9517C50.4084 72.9517 49.9467 73.0795 49.549 73.3352C49.1513 73.5862 48.8411 73.9176 48.6186 74.3295C48.4008 74.7367 48.2895 75.1842 48.2848 75.6719V77.1847C48.2848 77.8191 48.4008 78.3636 48.6328 78.8182C48.8648 79.268 49.1892 79.6136 49.6058 79.8551C50.0225 80.0919 50.5102 80.2102 51.0689 80.2102C51.4429 80.2102 51.7815 80.1581 52.0845 80.054C52.3875 79.9451 52.6503 79.7865 52.8729 79.5781C53.0954 79.3698 53.2635 79.1117 53.3771 78.804L55.7777 79.0739C55.6262 79.7083 55.3374 80.2623 54.9112 80.7358C54.4898 81.2045 53.95 81.5691 53.2919 81.8295C52.6338 82.0852 51.8809 82.2131 51.0334 82.2131ZM63.5067 71.0909V73.0795H57.2354V71.0909H63.5067ZM58.7837 68.4773H61.3548V78.7188C61.3548 79.0644 61.4068 79.3295 61.511 79.5142C61.6199 79.6941 61.762 79.8172 61.9371 79.8835C62.1123 79.9498 62.3065 79.983 62.5195 79.983C62.6805 79.983 62.8273 79.9711 62.9599 79.9474C63.0972 79.9238 63.2013 79.9025 63.2724 79.8835L63.7056 81.8935C63.5683 81.9408 63.3718 81.9929 63.1161 82.0497C62.8652 82.1065 62.5574 82.1397 62.1928 82.1491C61.5489 82.1681 60.9689 82.071 60.4528 81.858C59.9367 81.6402 59.5271 81.304 59.2241 80.8494C58.9258 80.3949 58.779 79.8267 58.7837 79.1449V68.4773ZM65.657 82V71.0909H68.1499V72.9091H68.2635C68.4624 72.2794 68.8033 71.794 69.2862 71.4531C69.7739 71.1075 70.3303 70.9347 70.9553 70.9347C71.0973 70.9347 71.2559 70.9418 71.4311 70.956C71.611 70.9654 71.7602 70.982 71.8786 71.0057V73.3707C71.7696 73.3329 71.5968 73.2997 71.3601 73.2713C71.1281 73.2382 70.9032 73.2216 70.6854 73.2216C70.2166 73.2216 69.7952 73.3234 69.4212 73.527C69.0518 73.7259 68.7607 74.0028 68.5476 74.358C68.3345 74.7131 68.228 75.1226 68.228 75.5866V82H65.657ZM75.5167 86.0909C75.1663 86.0909 74.842 86.0625 74.5437 86.0057C74.2501 85.9536 74.0157 85.892 73.8406 85.821L74.4371 83.8182C74.8112 83.9271 75.145 83.9792 75.4386 83.9744C75.7321 83.9697 75.9902 83.8774 76.2127 83.6974C76.44 83.5223 76.6317 83.2287 76.788 82.8168L77.0082 82.2273L73.0522 71.0909H75.7795L78.2937 79.3295H78.4073L80.9286 71.0909H83.663L79.2951 83.321C79.0915 83.8987 78.8216 84.3935 78.4854 84.8054C78.1493 85.2221 77.7373 85.5393 77.2496 85.7571C76.7667 85.9796 76.189 86.0909 75.5167 86.0909ZM97.935 67.4545V82H95.364V67.4545H97.935ZM105.337 82.2131C104.272 82.2131 103.349 81.9787 102.567 81.5099C101.786 81.0412 101.18 80.3854 100.749 79.5426C100.323 78.6998 100.11 77.715 100.11 76.5881C100.11 75.4612 100.323 74.474 100.749 73.6264C101.18 72.7789 101.786 72.1207 102.567 71.652C103.349 71.1832 104.272 70.9489 105.337 70.9489C106.403 70.9489 107.326 71.1832 108.107 71.652C108.888 72.1207 109.492 72.7789 109.918 73.6264C110.349 74.474 110.565 75.4612 110.565 76.5881C110.565 77.715 110.349 78.6998 109.918 79.5426C109.492 80.3854 108.888 81.0412 108.107 81.5099C107.326 81.9787 106.403 82.2131 105.337 82.2131ZM105.352 80.1534C105.929 80.1534 106.412 79.9948 106.8 79.6776C107.189 79.3556 107.478 78.9247 107.667 78.3849C107.861 77.8452 107.958 77.2438 107.958 76.581C107.958 75.9134 107.861 75.3097 107.667 74.7699C107.478 74.2254 107.189 73.7921 106.8 73.4702C106.412 73.1482 105.929 72.9872 105.352 72.9872C104.76 72.9872 104.267 73.1482 103.874 73.4702C103.486 73.7921 103.195 74.2254 103.001 74.7699C102.811 75.3097 102.717 75.9134 102.717 76.581C102.717 77.2438 102.811 77.8452 103.001 78.3849C103.195 78.9247 103.486 79.3556 103.874 79.6776C104.267 79.9948 104.76 80.1534 105.352 80.1534ZM117.491 86.3182C116.568 86.3182 115.775 86.1927 115.112 85.9418C114.449 85.6955 113.916 85.3641 113.514 84.9474C113.111 84.5308 112.832 84.0691 112.676 83.5625L114.991 83.0014C115.095 83.2145 115.247 83.4252 115.446 83.6335C115.645 83.8466 115.912 84.0218 116.248 84.1591C116.589 84.3011 117.018 84.3722 117.534 84.3722C118.263 84.3722 118.867 84.1946 119.345 83.8395C119.823 83.4891 120.062 82.9115 120.062 82.1065V80.0398H119.934C119.802 80.3049 119.608 80.5772 119.352 80.8565C119.101 81.1359 118.767 81.3703 118.35 81.5597C117.939 81.7491 117.42 81.8438 116.795 81.8438C115.957 81.8438 115.197 81.6473 114.515 81.2543C113.838 80.8565 113.298 80.2647 112.896 79.4787C112.498 78.688 112.299 77.6984 112.299 76.5099C112.299 75.312 112.498 74.3011 112.896 73.4773C113.298 72.6487 113.841 72.0213 114.522 71.5952C115.204 71.1643 115.964 70.9489 116.802 70.9489C117.441 70.9489 117.967 71.0578 118.379 71.2756C118.796 71.4886 119.127 71.7467 119.373 72.0497C119.619 72.348 119.806 72.6297 119.934 72.8949H120.076V71.0909H122.612V82.1776C122.612 83.1103 122.389 83.8821 121.944 84.4929C121.499 85.1037 120.891 85.5606 120.119 85.8636C119.347 86.1667 118.471 86.3182 117.491 86.3182ZM117.512 79.8267C118.057 79.8267 118.521 79.6941 118.904 79.429C119.288 79.1638 119.579 78.7827 119.778 78.2855C119.977 77.7884 120.076 77.1918 120.076 76.4957C120.076 75.8092 119.977 75.2079 119.778 74.6918C119.584 74.1757 119.295 73.7756 118.912 73.4915C118.533 73.2027 118.066 73.0582 117.512 73.0582C116.94 73.0582 116.461 73.2074 116.078 73.5057C115.694 73.804 115.405 74.2135 115.211 74.7344C115.017 75.2505 114.92 75.8376 114.92 76.4957C114.92 77.1634 115.017 77.7481 115.211 78.25C115.41 78.7472 115.701 79.1354 116.085 79.4148C116.473 79.6894 116.949 79.8267 117.512 79.8267ZM130.005 82.2131C128.94 82.2131 128.017 81.9787 127.235 81.5099C126.454 81.0412 125.848 80.3854 125.417 79.5426C124.991 78.6998 124.778 77.715 124.778 76.5881C124.778 75.4612 124.991 74.474 125.417 73.6264C125.848 72.7789 126.454 72.1207 127.235 71.652C128.017 71.1832 128.94 70.9489 130.005 70.9489C131.071 70.9489 131.994 71.1832 132.775 71.652C133.556 72.1207 134.16 72.7789 134.586 73.6264C135.017 74.474 135.233 75.4612 135.233 76.5881C135.233 77.715 135.017 78.6998 134.586 79.5426C134.16 80.3854 133.556 81.0412 132.775 81.5099C131.994 81.9787 131.071 82.2131 130.005 82.2131ZM130.02 80.1534C130.597 80.1534 131.08 79.9948 131.468 79.6776C131.857 79.3556 132.145 78.9247 132.335 78.3849C132.529 77.8452 132.626 77.2438 132.626 76.581C132.626 75.9134 132.529 75.3097 132.335 74.7699C132.145 74.2254 131.857 73.7921 131.468 73.4702C131.08 73.1482 130.597 72.9872 130.02 72.9872C129.428 72.9872 128.935 73.1482 128.542 73.4702C128.154 73.7921 127.863 74.2254 127.669 74.7699C127.479 75.3097 127.385 75.9134 127.385 76.581C127.385 77.2438 127.479 77.8452 127.669 78.3849C127.863 78.9247 128.154 79.3556 128.542 79.6776C128.935 79.9948 129.428 80.1534 130.02 80.1534Z" fill="black"/>
</svg>
