<svg width="25" height="25" viewBox="0 0 25 25" fill="none" xmlns="http://www.w3.org/2000/svg">
<path d="M23.8404 1.19436C22.2235 -0.469694 19.6612 -0.530951 17.3189 1.87964C15.2868 3.9709 15.7425 3.50215 15.1022 4.16106C13.5393 5.76945 13.2826 8.17818 13.4571 9.78524L18.0698 5.03783C18.2316 4.87137 18.4938 4.87137 18.6553 5.03783C18.8169 5.20429 18.8169 5.47409 18.6553 5.64054L11.9466 12.5453C11.7042 12.7948 11.7042 13.1996 11.9466 13.4492C12.1891 13.6988 12.5825 13.6988 12.825 13.4492L14.5337 11.6906C15.8857 12.109 18.9769 12.1745 20.9144 10.2274H18.3761L22.1909 8.91859C23.4831 7.58878 23.1313 7.95499 23.388 7.67054H20.8604L24.2607 6.504C25.4354 4.52088 25.1477 2.53988 23.8404 1.19436Z" fill="#008080"/>
<path d="M3.53111 15.0603C3.27149 15.1359 3.03376 15.2758 2.83862 15.4677C2.64348 15.6597 2.49687 15.8979 2.41155 16.1616L0 23.6152L0.379737 24.0064L4.26009 20.0085C4.18279 19.8418 4.13601 19.6575 4.13601 19.4604C4.13601 18.7543 4.69152 18.182 5.37681 18.182C6.06209 18.182 6.61761 18.7543 6.61761 19.4604C6.61761 20.1664 6.06209 20.7388 5.37681 20.7388C5.18552 20.7388 5.00663 20.6906 4.84481 20.6109L0.964465 24.6089L1.3442 25.0001L8.57859 22.5155C8.83454 22.4276 9.06574 22.2765 9.25204 22.0755C9.43835 21.8744 9.57411 21.6295 9.64749 21.362L10.7536 17.3297L7.44481 13.9206L3.53111 15.0603ZM12.8718 13.3392L11.3179 11.7383C10.8332 11.2389 10.0471 11.2389 9.56244 11.7383L8.10062 13.2444L11.4099 16.654L12.8718 15.1479C13.3565 14.6485 13.3565 13.8389 12.8718 13.3392Z" fill="#008080"/>
</svg>
