<svg width="20" height="20" viewBox="0 0 20 20" fill="none" xmlns="http://www.w3.org/2000/svg">
<path d="M19.0724 0.95549C17.7788 -0.375755 15.729 -0.42476 13.8551 1.50371C12.2295 3.17672 12.5941 2.80172 12.0818 3.32885C10.8315 4.61556 10.6261 6.54254 10.7657 7.82819L14.4559 4.03026C14.5854 3.8971 14.7951 3.8971 14.9243 4.03026C15.0536 4.16343 15.0536 4.37927 14.9243 4.51244L9.55735 10.0362C9.36337 10.2359 9.36337 10.5597 9.55735 10.7594C9.75133 10.959 10.0661 10.959 10.2601 10.7594L11.627 9.35247C12.7086 9.6872 15.1816 9.73962 16.7316 8.18188H14.701L17.7528 7.13487C18.7866 6.07102 18.5051 6.36399 18.7105 6.13644H16.6883L19.4086 5.2032C20.3484 3.6167 20.1182 2.03191 19.0724 0.95549Z" fill="#A4C4C4"/>
<path d="M2.82489 12.0482C2.6172 12.1086 2.42701 12.2205 2.2709 12.3741C2.11479 12.5277 1.9975 12.7182 1.92924 12.9292L0 18.8921L0.30379 19.2051L3.40807 16.0067C3.34624 15.8733 3.30881 15.7259 3.30881 15.5682C3.30881 15.0034 3.75322 14.5455 4.30145 14.5455C4.84968 14.5455 5.29409 15.0034 5.29409 15.5682C5.29409 16.1331 4.84968 16.591 4.30145 16.591C4.14842 16.591 4.00531 16.5524 3.87585 16.4887L0.771573 19.687L1.07536 20L6.86288 18.0123C7.06764 17.942 7.2526 17.8212 7.40164 17.6603C7.55069 17.4995 7.65929 17.3035 7.718 17.0895L8.6029 13.8637L5.95585 11.1364L2.82489 12.0482ZM10.2974 10.6713L9.05434 9.39057C8.66659 8.99107 8.03771 8.99107 7.64996 9.39057L6.48051 10.5955L9.12797 13.3231L10.2974 12.1183C10.6852 11.7188 10.6852 11.071 10.2974 10.6713Z" fill="#A4C4C4"/>
</svg>
