<svg width="16" height="15" viewBox="0 0 16 15" fill="none" xmlns="http://www.w3.org/2000/svg">
<path d="M11.5723 0L10.5117 1.07631L12.2314 2.82161H11.792C7.24444 2.82161 3.54199 6.57909 3.54199 11.1943V11.9554H5.04199V11.1943C5.04199 7.40175 8.05505 4.3439 11.792 4.3439H12.2314L10.5117 6.0892L11.5723 7.16551L15.1025 3.58276L11.5723 0ZM0.541992 4.3439V5.10505V12.7166C0.541992 13.9686 1.55826 15 2.79199 15H13.292C14.5257 15 15.542 13.9686 15.542 12.7166V11.9554V11.1943H14.042V11.9554V12.7166C14.042 13.1466 13.7158 13.4777 13.292 13.4777H2.79199C2.36822 13.4777 2.04199 13.1466 2.04199 12.7166V5.10505V4.3439H0.541992Z" fill="#008080"/>
</svg>
