<svg width="245" height="80" viewBox="0 0 245 80" fill="none" xmlns="http://www.w3.org/2000/svg">
<rect width="245" height="80" rx="10" fill="#008080"/>
<path d="M27.63 28.42C27.35 28.42 27.13 28.325 26.97 28.135C26.39 26.955 25.845 25.45 25.335 23.62C24.825 21.78 24.505 20.06 24.375 18.46L25.68 17.845L26.07 18.085C26.03 18.535 26.01 19.04 26.01 19.6C26.01 21.93 26.495 24.525 27.465 27.385C27.615 26.315 27.89 25.045 28.29 23.575C28.7 22.095 29.14 20.775 29.61 19.615C29.57 19.365 29.53 18.98 29.49 18.46L30.795 17.845L31.185 18.085C31.145 18.535 31.125 19.04 31.125 19.6C31.125 21.93 31.61 24.525 32.58 27.385C32.77 26.035 33.135 24.43 33.675 22.57C34.225 20.7 34.78 19.22 35.34 18.13C35.55 17.94 35.795 17.845 36.075 17.845C36.115 17.845 36.135 17.865 36.135 17.905C36.135 17.945 36 18.34 35.73 19.09C35.47 19.84 35.155 21 34.785 22.57C34.415 24.14 34.13 25.85 33.93 27.7L32.745 28.42C32.465 28.42 32.245 28.325 32.085 28.135C31.195 26.315 30.48 24.095 29.94 21.475C29.43 23.405 29.055 25.48 28.815 27.7L27.63 28.42ZM41.5509 22.48C41.4409 22.94 41.2209 23.355 40.8909 23.725C40.5609 24.095 40.1859 24.39 39.7659 24.61C38.9959 25.01 38.3209 25.265 37.7409 25.375C37.7809 25.875 37.9109 26.245 38.1309 26.485C38.3509 26.725 38.6159 26.845 38.9259 26.845C39.8059 26.845 40.6009 26.105 41.3109 24.625C41.3209 24.565 41.3709 24.535 41.4609 24.535C41.5509 24.535 41.6859 24.605 41.8659 24.745C41.4359 25.785 40.9059 26.645 40.2759 27.325C39.6559 27.995 39.0359 28.33 38.4159 28.33C37.7959 28.33 37.3109 28.105 36.9609 27.655C36.6209 27.205 36.4509 26.6 36.4509 25.84C36.4509 24.79 36.7359 23.82 37.3059 22.93C37.6159 22.45 38.0509 22.03 38.6109 21.67C39.1809 21.3 39.8559 21.025 40.6359 20.845C41.2459 21.055 41.5509 21.6 41.5509 22.48ZM39.7959 22.03C39.3759 22.03 38.9409 22.275 38.4909 22.765C38.0409 23.245 37.7909 23.915 37.7409 24.775C38.5709 24.555 39.2059 24.235 39.6459 23.815C40.0959 23.385 40.3209 22.965 40.3209 22.555C40.3209 22.405 40.2759 22.28 40.1859 22.18C40.0959 22.08 39.9659 22.03 39.7959 22.03ZM43.6177 17.32L44.8177 17.89C44.9277 18.63 44.9827 19.435 44.9827 20.305C44.9827 21.165 44.9327 22.085 44.8327 23.065C44.6227 25.045 44.3227 26.76 43.9327 28.21C43.8727 28.28 43.7677 28.34 43.6177 28.39C43.4677 28.44 43.3477 28.465 43.2577 28.465C43.1677 28.465 43.1227 28.44 43.1227 28.39C43.5927 26.39 43.8277 24.415 43.8277 22.465C43.8277 20.515 43.6327 18.88 43.2427 17.56L43.6177 17.32ZM51.5405 24.745C51.3005 25.755 50.8805 26.605 50.2805 27.295C49.6905 27.985 49.0805 28.33 48.4505 28.33C47.8205 28.33 47.3305 28.105 46.9805 27.655C46.6405 27.205 46.4705 26.6 46.4705 25.84C46.4705 24.98 46.6655 24.17 47.0555 23.41C47.2755 22.98 47.5555 22.59 47.8955 22.24C48.2355 21.89 48.6855 21.565 49.2455 21.265C49.8155 20.955 50.4655 20.71 51.1955 20.53L51.5255 20.815L51.0455 22.15C50.7155 22.02 50.3955 21.955 50.0855 21.955C49.3755 21.955 48.8105 22.27 48.3905 22.9C47.9705 23.53 47.7605 24.255 47.7605 25.075C47.7605 25.635 47.8755 26.07 48.1055 26.38C48.3355 26.69 48.6155 26.845 48.9455 26.845C49.6955 26.845 50.3705 26.105 50.9705 24.625C50.9805 24.565 51.0255 24.535 51.1055 24.535C51.1955 24.535 51.3405 24.605 51.5405 24.745ZM58.2785 21.145L57.5585 21.97C58.1185 22.65 58.3985 23.505 58.3985 24.535C58.3985 25.985 57.9335 27.1 57.0035 27.88C56.5135 28.29 55.9085 28.495 55.1885 28.495C54.4785 28.495 53.8685 28.21 53.3585 27.64C52.8585 27.07 52.6085 26.285 52.6085 25.285C52.6085 24.235 52.9985 23.28 53.7785 22.42C54.1885 21.97 54.7635 21.595 55.5035 21.295C56.2535 20.995 57.1235 20.805 58.1135 20.725L58.2785 21.145ZM55.4135 27.13C56.0235 27.13 56.5285 26.87 56.9285 26.35C57.3385 25.83 57.5435 25.29 57.5435 24.73C57.5435 23.52 57.2685 22.585 56.7185 21.925C55.9485 22.055 55.2985 22.4 54.7685 22.96C54.2385 23.52 53.9735 24.155 53.9735 24.865C53.9735 25.575 54.0985 26.13 54.3485 26.53C54.6085 26.93 54.9635 27.13 55.4135 27.13ZM60.207 28.135C60.447 26.875 60.567 25.73 60.567 24.7C60.567 23.67 60.527 22.945 60.447 22.525C60.377 22.095 60.297 21.735 60.207 21.445C60.127 21.155 60.082 20.99 60.072 20.95L60.432 20.725L61.647 21.31C61.727 22 61.767 22.52 61.767 22.87C61.767 23.21 61.767 23.415 61.767 23.485C62.157 22.705 62.587 22.085 63.057 21.625C63.537 21.155 63.982 20.92 64.392 20.92C64.802 20.92 65.107 21.075 65.307 21.385C65.507 21.685 65.607 22.065 65.607 22.525C65.607 22.985 65.592 23.41 65.562 23.8C65.952 22.94 66.402 22.245 66.912 21.715C67.422 21.185 67.887 20.92 68.307 20.92C68.737 20.92 69.052 21.075 69.252 21.385C69.452 21.685 69.552 22.07 69.552 22.54C69.552 23 69.532 23.485 69.492 23.995C69.452 24.495 69.407 24.925 69.357 25.285C69.317 25.635 69.252 26.12 69.162 26.74C69.082 27.35 69.022 27.81 68.982 28.12C68.862 28.26 68.647 28.33 68.337 28.33C68.277 28.33 68.247 28.315 68.247 28.285C68.377 26.855 68.442 25.785 68.442 25.075C68.442 23.505 68.162 22.72 67.602 22.72C67.172 22.72 66.732 23.085 66.282 23.815C65.842 24.545 65.477 25.575 65.187 26.905C65.147 27.175 65.097 27.58 65.037 28.12C64.917 28.26 64.697 28.33 64.377 28.33C64.327 28.33 64.302 28.315 64.302 28.285C64.432 26.855 64.497 25.785 64.497 25.075C64.497 23.505 64.217 22.72 63.657 22.72C63.297 22.72 62.922 22.99 62.532 23.53C62.142 24.06 61.797 24.825 61.497 25.825C61.367 26.515 61.162 27.235 60.882 27.985C60.742 28.125 60.592 28.195 60.432 28.195C60.282 28.195 60.207 28.175 60.207 28.135ZM76.0627 22.48C75.9527 22.94 75.7327 23.355 75.4027 23.725C75.0727 24.095 74.6977 24.39 74.2777 24.61C73.5077 25.01 72.8327 25.265 72.2527 25.375C72.2927 25.875 72.4227 26.245 72.6427 26.485C72.8627 26.725 73.1277 26.845 73.4377 26.845C74.3177 26.845 75.1127 26.105 75.8227 24.625C75.8327 24.565 75.8827 24.535 75.9727 24.535C76.0627 24.535 76.1977 24.605 76.3777 24.745C75.9477 25.785 75.4177 26.645 74.7877 27.325C74.1677 27.995 73.5477 28.33 72.9277 28.33C72.3077 28.33 71.8227 28.105 71.4727 27.655C71.1327 27.205 70.9627 26.6 70.9627 25.84C70.9627 24.79 71.2477 23.82 71.8177 22.93C72.1277 22.45 72.5627 22.03 73.1227 21.67C73.6927 21.3 74.3677 21.025 75.1477 20.845C75.7577 21.055 76.0627 21.6 76.0627 22.48ZM74.3077 22.03C73.8877 22.03 73.4527 22.275 73.0027 22.765C72.5527 23.245 72.3027 23.915 72.2527 24.775C73.0827 24.555 73.7177 24.235 74.1577 23.815C74.6077 23.385 74.8327 22.965 74.8327 22.555C74.8327 22.405 74.7877 22.28 74.6977 22.18C74.6077 22.08 74.4777 22.03 74.3077 22.03ZM85.8435 21.145L85.3935 22.195C84.9035 22.295 84.4035 22.35 83.8935 22.36C83.7035 25.02 83.4535 26.94 83.1435 28.12C83.0235 28.26 82.8135 28.33 82.5135 28.33C82.4435 28.33 82.4085 28.315 82.4085 28.285C82.6285 26.865 82.7385 25.485 82.7385 24.145C82.7385 23.655 82.7235 23.05 82.6935 22.33C82.1635 22.27 81.7485 22.2 81.4485 22.12C81.3885 22.09 81.3235 21.99 81.2535 21.82C81.1935 21.64 81.1585 21.5 81.1485 21.4L81.2085 21.31C81.5985 21.39 82.0785 21.43 82.6485 21.43C82.5885 20.33 82.5335 19.59 82.4835 19.21L82.8435 18.955L84.0585 19.6L83.9685 21.355C84.4985 21.295 85.0735 21.145 85.6935 20.905L85.8435 21.145ZM91.9406 21.145L91.2206 21.97C91.7806 22.65 92.0606 23.505 92.0606 24.535C92.0606 25.985 91.5956 27.1 90.6656 27.88C90.1756 28.29 89.5706 28.495 88.8506 28.495C88.1406 28.495 87.5306 28.21 87.0206 27.64C86.5206 27.07 86.2706 26.285 86.2706 25.285C86.2706 24.235 86.6606 23.28 87.4406 22.42C87.8506 21.97 88.4256 21.595 89.1656 21.295C89.9156 20.995 90.7856 20.805 91.7756 20.725L91.9406 21.145ZM89.0756 27.13C89.6856 27.13 90.1906 26.87 90.5906 26.35C91.0006 25.83 91.2056 25.29 91.2056 24.73C91.2056 23.52 90.9306 22.585 90.3806 21.925C89.6106 22.055 88.9606 22.4 88.4306 22.96C87.9006 23.52 87.6356 24.155 87.6356 24.865C87.6356 25.575 87.7606 26.13 88.0106 26.53C88.2706 26.93 88.6256 27.13 89.0756 27.13ZM98.0732 24.85C97.9032 24.69 97.8182 24.49 97.8182 24.25C97.8182 24.17 97.8332 24.13 97.8632 24.13C98.0732 24.17 98.3832 24.19 98.7932 24.19H99.0782C99.0382 21.4 98.6382 19.56 97.8782 18.67L98.5832 17.665C99.3332 18.175 100.403 18.735 101.793 19.345C102.223 19.535 102.643 19.75 103.053 19.99C103.863 20.46 104.268 21.07 104.268 21.82C104.268 22.57 103.933 23.23 103.263 23.8C102.603 24.37 101.508 24.715 99.9782 24.835C99.9182 25.515 99.7882 26.665 99.5882 28.285C99.4382 28.435 99.2782 28.51 99.1082 28.51C98.9482 28.51 98.8682 28.495 98.8682 28.465C98.9982 27.095 99.0682 25.895 99.0782 24.865H99.0032C98.5832 24.865 98.2732 24.86 98.0732 24.85ZM99.8282 19.345C99.9982 20.295 100.083 21.205 100.083 22.075C100.083 22.945 100.063 23.625 100.023 24.115C100.923 23.975 101.603 23.71 102.063 23.32C102.523 22.92 102.753 22.465 102.753 21.955C102.753 21.495 102.613 21.125 102.333 20.845C102.183 20.685 102.043 20.55 101.913 20.44C101.793 20.33 101.588 20.2 101.298 20.05C100.848 19.82 100.358 19.585 99.8282 19.345ZM110.119 21.145L109.399 21.97C109.959 22.65 110.239 23.505 110.239 24.535C110.239 25.985 109.774 27.1 108.844 27.88C108.354 28.29 107.749 28.495 107.029 28.495C106.319 28.495 105.709 28.21 105.199 27.64C104.699 27.07 104.449 26.285 104.449 25.285C104.449 24.235 104.839 23.28 105.619 22.42C106.029 21.97 106.604 21.595 107.344 21.295C108.094 20.995 108.964 20.805 109.954 20.725L110.119 21.145ZM107.254 27.13C107.864 27.13 108.369 26.87 108.769 26.35C109.179 25.83 109.384 25.29 109.384 24.73C109.384 23.52 109.109 22.585 108.559 21.925C107.789 22.055 107.139 22.4 106.609 22.96C106.079 23.52 105.814 24.155 105.814 24.865C105.814 25.575 105.939 26.13 106.189 26.53C106.449 26.93 106.804 27.13 107.254 27.13ZM116.683 22.48C116.573 22.94 116.353 23.355 116.023 23.725C115.693 24.095 115.318 24.39 114.898 24.61C114.128 25.01 113.453 25.265 112.873 25.375C112.913 25.875 113.043 26.245 113.263 26.485C113.483 26.725 113.748 26.845 114.058 26.845C114.938 26.845 115.733 26.105 116.443 24.625C116.453 24.565 116.503 24.535 116.593 24.535C116.683 24.535 116.818 24.605 116.998 24.745C116.568 25.785 116.038 26.645 115.408 27.325C114.788 27.995 114.168 28.33 113.548 28.33C112.928 28.33 112.443 28.105 112.093 27.655C111.753 27.205 111.583 26.6 111.583 25.84C111.583 24.79 111.868 23.82 112.438 22.93C112.748 22.45 113.183 22.03 113.743 21.67C114.313 21.3 114.988 21.025 115.768 20.845C116.378 21.055 116.683 21.6 116.683 22.48ZM114.928 22.03C114.508 22.03 114.073 22.275 113.623 22.765C113.173 23.245 112.923 23.915 112.873 24.775C113.703 24.555 114.338 24.235 114.778 23.815C115.228 23.385 115.453 22.965 115.453 22.555C115.453 22.405 115.408 22.28 115.318 22.18C115.228 22.08 115.098 22.03 114.928 22.03ZM122.259 21.145L121.809 22.195C121.319 22.295 120.819 22.35 120.309 22.36C120.119 25.02 119.869 26.94 119.559 28.12C119.439 28.26 119.229 28.33 118.929 28.33C118.859 28.33 118.824 28.315 118.824 28.285C119.044 26.865 119.154 25.485 119.154 24.145C119.154 23.655 119.139 23.05 119.109 22.33C118.579 22.27 118.164 22.2 117.864 22.12C117.804 22.09 117.739 21.99 117.669 21.82C117.609 21.64 117.574 21.5 117.564 21.4L117.624 21.31C118.014 21.39 118.494 21.43 119.064 21.43C119.004 20.33 118.949 19.59 118.899 19.21L119.259 18.955L120.474 19.6L120.384 21.355C120.914 21.295 121.489 21.145 122.109 20.905L122.259 21.145ZM127.352 21.04L126.992 22.765C126.862 22.725 126.687 22.705 126.467 22.705C126.247 22.705 126.037 22.775 125.837 22.915C125.637 23.055 125.452 23.295 125.282 23.635C125.112 23.975 124.967 24.33 124.847 24.7C124.727 25.07 124.607 25.465 124.487 25.885C124.367 26.305 124.267 26.655 124.187 26.935C124.117 27.205 123.972 27.635 123.752 28.225C123.622 28.375 123.437 28.45 123.197 28.45C123.117 28.45 123.077 28.43 123.077 28.39C123.337 27.12 123.467 25.86 123.467 24.61C123.467 23.35 123.312 22.14 123.002 20.98L123.362 20.725L124.577 21.37C124.647 22.09 124.682 22.725 124.682 23.275V23.485C125.302 22.035 126.087 21.125 127.037 20.755L127.352 21.04ZM133.398 20.89L133.383 20.98C132.373 22.64 131.518 24.955 130.818 27.925C130.258 30.325 129.148 31.77 127.488 32.26L127.113 31.99L127.473 30.535C127.673 30.565 127.843 30.58 127.983 30.58C128.923 30.58 129.618 29.81 130.068 28.27C129.848 28.41 129.673 28.48 129.543 28.48C129.413 28.48 129.308 28.46 129.228 28.42C128.848 27.63 128.513 26.615 128.223 25.375C127.933 24.125 127.788 23 127.788 22C127.788 21.58 127.813 21.24 127.863 20.98L128.238 20.725L129.438 21.325C129.258 22.075 129.168 22.92 129.168 23.86C129.168 24.79 129.298 25.96 129.558 27.37C129.848 26.36 130.298 25.255 130.908 24.055C131.518 22.845 132.118 21.84 132.708 21.04C132.898 20.9 133.113 20.83 133.353 20.83C133.383 20.83 133.398 20.85 133.398 20.89ZM134.602 24.64C134.602 21.85 134.842 19.5 135.322 17.59L135.727 17.395L136.942 18.115C136.602 18.805 136.277 19.84 135.967 21.22C135.667 22.6 135.472 23.89 135.382 25.09C135.232 25.21 135.047 25.27 134.827 25.27C134.677 25.27 134.602 25.06 134.602 24.64ZM135.532 26.185C135.042 26.255 134.662 26.405 134.392 26.635C134.122 26.855 133.987 27.115 133.987 27.415C133.987 27.705 134.067 27.945 134.227 28.135C134.387 28.325 134.612 28.42 134.902 28.42C135.192 28.42 135.457 28.315 135.697 28.105C135.937 27.905 136.057 27.605 136.057 27.205C136.057 26.795 135.882 26.455 135.532 26.185ZM147.264 18.43L146.769 19.72C146.279 19.46 145.744 19.33 145.164 19.33C144.584 19.33 144.114 19.435 143.754 19.645C143.404 19.855 143.229 20.185 143.229 20.635C143.229 21.185 143.689 21.81 144.609 22.51C144.989 22.8 145.369 23.1 145.749 23.41C146.129 23.71 146.454 24.06 146.724 24.46C146.994 24.85 147.129 25.22 147.129 25.57C147.129 25.92 147.069 26.24 146.949 26.53C146.839 26.81 146.649 27.1 146.379 27.4C146.109 27.7 145.689 27.945 145.119 28.135C144.549 28.325 143.909 28.42 143.199 28.42C142.489 28.42 141.859 28.335 141.309 28.165C141.199 27.995 141.144 27.845 141.144 27.715C141.144 27.585 141.149 27.52 141.159 27.52C141.179 27.52 141.254 27.54 141.384 27.58C141.794 27.69 142.204 27.745 142.614 27.745C143.454 27.745 144.134 27.575 144.654 27.235C145.184 26.895 145.449 26.46 145.449 25.93C145.449 25.33 145.019 24.685 144.159 23.995C143.799 23.705 143.439 23.415 143.079 23.125C142.219 22.435 141.789 21.76 141.789 21.1C141.789 20.68 141.964 20.27 142.314 19.87C143.084 18.98 144.649 18.37 147.009 18.04L147.264 18.43ZM152.626 21.145L152.176 22.195C151.686 22.295 151.186 22.35 150.676 22.36C150.486 25.02 150.236 26.94 149.926 28.12C149.806 28.26 149.596 28.33 149.296 28.33C149.226 28.33 149.191 28.315 149.191 28.285C149.411 26.865 149.521 25.485 149.521 24.145C149.521 23.655 149.506 23.05 149.476 22.33C148.946 22.27 148.531 22.2 148.231 22.12C148.171 22.09 148.106 21.99 148.036 21.82C147.976 21.64 147.941 21.5 147.931 21.4L147.991 21.31C148.381 21.39 148.861 21.43 149.431 21.43C149.371 20.33 149.316 19.59 149.266 19.21L149.626 18.955L150.841 19.6L150.751 21.355C151.281 21.295 151.856 21.145 152.476 20.905L152.626 21.145ZM156.358 21.13L157.573 20.605L157.933 20.815C157.603 21.785 157.438 22.905 157.438 24.175C157.438 24.715 157.483 25.465 157.573 26.425C157.663 27.385 157.748 28.035 157.828 28.375C157.828 28.405 157.753 28.42 157.603 28.42C157.453 28.42 157.308 28.35 157.168 28.21C156.848 27.47 156.593 26.38 156.403 24.94C155.983 25.94 155.478 26.755 154.888 27.385C154.308 28.015 153.783 28.33 153.313 28.33C152.413 28.33 151.963 27.765 151.963 26.635C151.963 25.985 152.093 25.36 152.353 24.76C152.613 24.16 152.963 23.635 153.403 23.185C154.283 22.295 155.268 21.61 156.358 21.13ZM154.123 26.53C154.443 26.53 154.798 26.275 155.188 25.765C155.588 25.245 155.943 24.515 156.253 23.575C156.243 23.435 156.238 23.165 156.238 22.765C156.238 22.365 156.243 22.07 156.253 21.88C155.393 22.37 154.698 22.895 154.168 23.455C153.638 24.005 153.373 24.655 153.373 25.405C153.373 26.155 153.623 26.53 154.123 26.53ZM163.943 21.04L163.583 22.765C163.453 22.725 163.278 22.705 163.058 22.705C162.838 22.705 162.628 22.775 162.428 22.915C162.228 23.055 162.043 23.295 161.873 23.635C161.703 23.975 161.558 24.33 161.438 24.7C161.318 25.07 161.198 25.465 161.078 25.885C160.958 26.305 160.858 26.655 160.778 26.935C160.708 27.205 160.563 27.635 160.343 28.225C160.213 28.375 160.028 28.45 159.788 28.45C159.708 28.45 159.668 28.43 159.668 28.39C159.928 27.12 160.058 25.86 160.058 24.61C160.058 23.35 159.903 22.14 159.593 20.98L159.953 20.725L161.168 21.37C161.238 22.09 161.273 22.725 161.273 23.275V23.485C161.893 22.035 162.678 21.125 163.628 20.755L163.943 21.04ZM168.49 21.145L168.04 22.195C167.55 22.295 167.05 22.35 166.54 22.36C166.35 25.02 166.1 26.94 165.79 28.12C165.67 28.26 165.46 28.33 165.16 28.33C165.09 28.33 165.055 28.315 165.055 28.285C165.275 26.865 165.385 25.485 165.385 24.145C165.385 23.655 165.37 23.05 165.34 22.33C164.81 22.27 164.395 22.2 164.095 22.12C164.035 22.09 163.97 21.99 163.9 21.82C163.84 21.64 163.805 21.5 163.795 21.4L163.855 21.31C164.245 21.39 164.725 21.43 165.295 21.43C165.235 20.33 165.18 19.59 165.13 19.21L165.49 18.955L166.705 19.6L166.615 21.355C167.145 21.295 167.72 21.145 168.34 20.905L168.49 21.145ZM177.666 20.92L177.186 22.255C176.726 21.955 176.271 21.805 175.821 21.805C175.081 21.805 174.711 22.09 174.711 22.66C174.711 23.05 175.021 23.505 175.641 24.025C175.911 24.245 176.176 24.475 176.436 24.715C177.056 25.285 177.366 25.86 177.366 26.44C177.366 26.89 177.196 27.32 176.856 27.73C176.666 27.95 176.356 28.125 175.926 28.255C175.506 28.395 175.021 28.465 174.471 28.465C173.921 28.465 173.426 28.395 172.986 28.255C172.936 28.215 172.876 28.125 172.806 27.985C172.746 27.835 172.716 27.73 172.716 27.67C172.716 27.61 172.726 27.58 172.746 27.58C172.776 27.58 172.851 27.595 172.971 27.625C173.271 27.705 173.651 27.745 174.111 27.745C174.571 27.745 174.956 27.645 175.266 27.445C175.586 27.245 175.746 26.99 175.746 26.68C175.746 26.37 175.616 26.065 175.356 25.765C175.106 25.465 174.826 25.195 174.516 24.955C174.216 24.715 173.936 24.42 173.676 24.07C173.426 23.71 173.301 23.35 173.301 22.99C173.301 22.67 173.406 22.385 173.616 22.135C173.836 21.875 174.086 21.66 174.366 21.49C175.046 21.09 176.036 20.805 177.336 20.635L177.666 20.92ZM183.309 28.285C183.449 26.935 183.519 25.865 183.519 25.075C183.519 23.505 183.224 22.72 182.634 22.72C182.194 22.72 181.734 23.085 181.254 23.815C180.784 24.545 180.394 25.575 180.084 26.905H180.069C180.019 27.155 179.924 27.59 179.784 28.21C179.724 28.28 179.624 28.34 179.484 28.39C179.354 28.44 179.244 28.465 179.154 28.465C179.074 28.465 179.034 28.44 179.034 28.39C179.484 26.3 179.709 24.305 179.709 22.405C179.709 20.495 179.514 18.88 179.124 17.56L179.499 17.32L180.699 17.89C180.799 18.56 180.849 19.36 180.849 20.29C180.849 21.21 180.769 22.3 180.609 23.56C181.029 22.76 181.489 22.12 181.989 21.64C182.499 21.16 182.979 20.92 183.429 20.92C184.229 20.92 184.629 21.485 184.629 22.615C184.629 23.545 184.544 24.625 184.374 25.855C184.204 27.075 184.104 27.83 184.074 28.12C183.934 28.26 183.714 28.33 183.414 28.33C183.344 28.33 183.309 28.315 183.309 28.285ZM190.181 21.13L191.396 20.605L191.756 20.815C191.426 21.785 191.261 22.905 191.261 24.175C191.261 24.715 191.306 25.465 191.396 26.425C191.486 27.385 191.571 28.035 191.651 28.375C191.651 28.405 191.576 28.42 191.426 28.42C191.276 28.42 191.131 28.35 190.991 28.21C190.671 27.47 190.416 26.38 190.226 24.94C189.806 25.94 189.301 26.755 188.711 27.385C188.131 28.015 187.606 28.33 187.136 28.33C186.236 28.33 185.786 27.765 185.786 26.635C185.786 25.985 185.916 25.36 186.176 24.76C186.436 24.16 186.786 23.635 187.226 23.185C188.106 22.295 189.091 21.61 190.181 21.13ZM187.946 26.53C188.266 26.53 188.621 26.275 189.011 25.765C189.411 25.245 189.766 24.515 190.076 23.575C190.066 23.435 190.061 23.165 190.061 22.765C190.061 22.365 190.066 22.07 190.076 21.88C189.216 22.37 188.521 22.895 187.991 23.455C187.461 24.005 187.196 24.655 187.196 25.405C187.196 26.155 187.446 26.53 187.946 26.53ZM197.767 21.04L197.407 22.765C197.277 22.725 197.102 22.705 196.882 22.705C196.662 22.705 196.452 22.775 196.252 22.915C196.052 23.055 195.867 23.295 195.697 23.635C195.527 23.975 195.382 24.33 195.262 24.7C195.142 25.07 195.022 25.465 194.902 25.885C194.782 26.305 194.682 26.655 194.602 26.935C194.532 27.205 194.387 27.635 194.167 28.225C194.037 28.375 193.852 28.45 193.612 28.45C193.532 28.45 193.492 28.43 193.492 28.39C193.752 27.12 193.882 25.86 193.882 24.61C193.882 23.35 193.727 22.14 193.417 20.98L193.777 20.725L194.992 21.37C195.062 22.09 195.097 22.725 195.097 23.275V23.485C195.717 22.035 196.502 21.125 197.452 20.755L197.767 21.04ZM200.033 21.31C200.053 21.61 200.063 21.92 200.063 22.24C200.063 23.98 199.758 25.895 199.148 27.985C199.008 28.125 198.818 28.195 198.578 28.195C198.528 28.195 198.493 28.19 198.473 28.18C198.463 28.17 198.463 28.155 198.473 28.135C198.713 26.705 198.833 25.39 198.833 24.19C198.833 22.99 198.708 21.91 198.458 20.95L198.818 20.725L200.033 21.31ZM199.418 19.825C199.168 19.825 198.973 19.74 198.833 19.57C198.703 19.4 198.638 19.185 198.638 18.925C198.638 18.665 198.753 18.44 198.983 18.25C199.213 18.05 199.548 17.92 199.988 17.86C200.288 18.11 200.438 18.41 200.438 18.76C200.438 19.1 200.333 19.365 200.123 19.555C199.913 19.735 199.678 19.825 199.418 19.825ZM201.96 28.135C202.2 26.875 202.32 25.73 202.32 24.7C202.32 23.67 202.28 22.945 202.2 22.525C202.13 22.095 202.05 21.735 201.96 21.445C201.88 21.155 201.835 20.99 201.825 20.95L202.185 20.725L203.4 21.31C203.48 21.89 203.52 22.375 203.52 22.765C203.52 23.155 203.515 23.44 203.505 23.62C203.925 22.8 204.39 22.145 204.9 21.655C205.41 21.165 205.88 20.92 206.31 20.92C207.14 20.92 207.555 21.485 207.555 22.615C207.555 23.495 207.47 24.55 207.3 25.78C207.13 27 207.025 27.78 206.985 28.12C206.865 28.26 206.645 28.33 206.325 28.33C206.255 28.33 206.22 28.315 206.22 28.285C206.37 27.005 206.445 25.935 206.445 25.075C206.445 23.505 206.15 22.72 205.56 22.72C205.11 22.72 204.645 23.085 204.165 23.815C203.695 24.545 203.31 25.575 203.01 26.905H202.98C202.84 27.385 202.725 27.745 202.635 27.985C202.495 28.125 202.345 28.195 202.185 28.195C202.035 28.195 201.96 28.175 201.96 28.135ZM213.076 21.13L213.946 20.725L214.321 20.98C214.331 21.18 214.336 21.595 214.336 22.225C214.336 23.795 214.086 25.685 213.586 27.895C213.346 28.995 212.851 29.975 212.101 30.835C211.721 31.265 211.261 31.61 210.721 31.87C210.181 32.13 209.601 32.26 208.981 32.26L208.621 31.99L208.966 30.535C209.426 30.665 209.846 30.73 210.226 30.73C212.086 30.73 213.031 28.805 213.061 24.955C212.631 25.955 212.151 26.745 211.621 27.325C211.091 27.895 210.566 28.18 210.046 28.18C209.656 28.18 209.356 28.025 209.146 27.715C208.936 27.395 208.831 26.94 208.831 26.35C208.831 25.75 208.961 25.17 209.221 24.61C209.481 24.04 209.826 23.54 210.256 23.11C211.066 22.28 212.006 21.62 213.076 21.13ZM213.031 23.44C213.011 23.11 212.951 22.61 212.851 21.94C211.931 22.34 211.231 22.885 210.751 23.575C210.271 24.255 210.031 24.9 210.031 25.51C210.031 25.82 210.096 26.07 210.226 26.26C210.366 26.44 210.561 26.53 210.811 26.53C211.151 26.53 211.531 26.26 211.951 25.72C212.371 25.18 212.731 24.42 213.031 23.44ZM30.405 38.89L30.39 38.98C29.38 40.64 28.525 42.955 27.825 45.925C27.265 48.325 26.155 49.77 24.495 50.26L24.12 49.99L24.48 48.535C24.68 48.565 24.85 48.58 24.99 48.58C25.93 48.58 26.625 47.81 27.075 46.27C26.855 46.41 26.68 46.48 26.55 46.48C26.42 46.48 26.315 46.46 26.235 46.42C25.855 45.63 25.52 44.615 25.23 43.375C24.94 42.125 24.795 41 24.795 40C24.795 39.58 24.82 39.24 24.87 38.98L25.245 38.725L26.445 39.325C26.265 40.075 26.175 40.92 26.175 41.86C26.175 42.79 26.305 43.96 26.565 45.37C26.855 44.36 27.305 43.255 27.915 42.055C28.525 40.845 29.125 39.84 29.715 39.04C29.905 38.9 30.12 38.83 30.36 38.83C30.39 38.83 30.405 38.85 30.405 38.89ZM36.3938 39.145L35.6738 39.97C36.2338 40.65 36.5138 41.505 36.5138 42.535C36.5138 43.985 36.0488 45.1 35.1188 45.88C34.6288 46.29 34.0238 46.495 33.3038 46.495C32.5938 46.495 31.9838 46.21 31.4738 45.64C30.9738 45.07 30.7238 44.285 30.7238 43.285C30.7238 42.235 31.1138 41.28 31.8938 40.42C32.3038 39.97 32.8788 39.595 33.6188 39.295C34.3688 38.995 35.2388 38.805 36.2288 38.725L36.3938 39.145ZM33.5288 45.13C34.1388 45.13 34.6438 44.87 35.0438 44.35C35.4538 43.83 35.6588 43.29 35.6588 42.73C35.6588 41.52 35.3838 40.585 34.8338 39.925C34.0638 40.055 33.4138 40.4 32.8838 40.96C32.3538 41.52 32.0888 42.155 32.0888 42.865C32.0888 43.575 32.2138 44.13 32.4638 44.53C32.7238 44.93 33.0788 45.13 33.5288 45.13ZM39.6272 38.98C39.4872 40.31 39.4172 41.375 39.4172 42.175C39.4172 43.745 39.7122 44.53 40.3022 44.53C40.6722 44.53 41.0572 44.28 41.4572 43.78C41.8572 43.27 42.2072 42.545 42.5072 41.605C42.4972 41.445 42.4922 41.12 42.4922 40.63C42.4922 40.14 42.5372 39.64 42.6272 39.13L43.8272 38.605L44.2022 38.815C43.8722 39.785 43.7072 40.905 43.7072 42.175C43.7072 42.725 43.7472 43.48 43.8272 44.44C43.9172 45.4 44.0072 46.045 44.0972 46.375C44.0972 46.405 44.0172 46.42 43.8572 46.42C43.7072 46.42 43.5622 46.35 43.4222 46.21C43.1222 45.49 42.8672 44.405 42.6572 42.955C42.2472 43.945 41.7472 44.755 41.1572 45.385C40.5772 46.015 40.0272 46.33 39.5072 46.33C38.7072 46.33 38.3072 45.765 38.3072 44.635C38.3072 43.865 38.3472 43.14 38.4272 42.46C38.5172 41.78 38.6022 41.135 38.6822 40.525C38.7722 39.915 38.8372 39.45 38.8772 39.13C38.9272 39.08 39.0272 39.035 39.1772 38.995C39.3272 38.945 39.4372 38.92 39.5072 38.92C39.5872 38.92 39.6272 38.94 39.6272 38.98ZM50.1983 39.04L49.8383 40.765C49.7083 40.725 49.5333 40.705 49.3133 40.705C49.0933 40.705 48.8833 40.775 48.6833 40.915C48.4833 41.055 48.2983 41.295 48.1283 41.635C47.9583 41.975 47.8133 42.33 47.6933 42.7C47.5733 43.07 47.4533 43.465 47.3333 43.885C47.2133 44.305 47.1133 44.655 47.0333 44.935C46.9633 45.205 46.8183 45.635 46.5983 46.225C46.4683 46.375 46.2833 46.45 46.0433 46.45C45.9633 46.45 45.9233 46.43 45.9233 46.39C46.1833 45.12 46.3133 43.86 46.3133 42.61C46.3133 41.35 46.1583 40.14 45.8483 38.98L46.2083 38.725L47.4233 39.37C47.4933 40.09 47.5283 40.725 47.5283 41.275V41.485C48.1483 40.035 48.9333 39.125 49.8833 38.755L50.1983 39.04ZM55.3489 35.32L56.5639 35.89C56.6639 36.6 56.7139 37.405 56.7139 38.305C56.7139 39.205 56.6539 40.22 56.5339 41.35C56.9439 40.53 57.4039 39.875 57.9139 39.385C58.4339 38.885 58.9239 38.635 59.3839 38.635C60.2439 38.635 60.6739 39.2 60.6739 40.33C60.6739 41.23 60.4239 42.14 59.9239 43.06C59.4339 43.97 58.7489 44.745 57.8689 45.385C56.9989 46.025 56.0689 46.38 55.0789 46.45C55.0589 46.46 55.0139 46.465 54.9439 46.465C54.8839 46.465 54.8539 46.44 54.8539 46.39C55.3239 44.39 55.5589 42.425 55.5589 40.495C55.5589 38.565 55.3689 36.92 54.9889 35.56L55.3489 35.32ZM56.0989 44.365L55.8289 45.625C56.9489 45.245 57.7989 44.655 58.3789 43.855C58.9689 43.045 59.2639 42.275 59.2639 41.545C59.2639 40.805 59.0189 40.435 58.5289 40.435C58.1389 40.435 57.7089 40.785 57.2389 41.485C56.7789 42.175 56.3989 43.135 56.0989 44.365ZM66.8488 40.48C66.7388 40.94 66.5188 41.355 66.1888 41.725C65.8588 42.095 65.4838 42.39 65.0638 42.61C64.2938 43.01 63.6188 43.265 63.0388 43.375C63.0788 43.875 63.2088 44.245 63.4288 44.485C63.6488 44.725 63.9138 44.845 64.2238 44.845C65.1038 44.845 65.8988 44.105 66.6088 42.625C66.6188 42.565 66.6688 42.535 66.7588 42.535C66.8488 42.535 66.9838 42.605 67.1638 42.745C66.7338 43.785 66.2038 44.645 65.5738 45.325C64.9538 45.995 64.3338 46.33 63.7138 46.33C63.0938 46.33 62.6088 46.105 62.2588 45.655C61.9188 45.205 61.7488 44.6 61.7488 43.84C61.7488 42.79 62.0338 41.82 62.6038 40.93C62.9138 40.45 63.3488 40.03 63.9088 39.67C64.4788 39.3 65.1538 39.025 65.9338 38.845C66.5438 39.055 66.8488 39.6 66.8488 40.48ZM65.0938 40.03C64.6738 40.03 64.2388 40.275 63.7888 40.765C63.3388 41.245 63.0888 41.915 63.0388 42.775C63.8688 42.555 64.5038 42.235 64.9438 41.815C65.3938 41.385 65.6188 40.965 65.6188 40.555C65.6188 40.405 65.5738 40.28 65.4838 40.18C65.3938 40.08 65.2638 40.03 65.0938 40.03ZM72.2755 39.13L73.4905 38.605L73.8505 38.815C73.5205 39.785 73.3555 40.905 73.3555 42.175C73.3555 42.715 73.4005 43.465 73.4905 44.425C73.5805 45.385 73.6655 46.035 73.7455 46.375C73.7455 46.405 73.6705 46.42 73.5205 46.42C73.3705 46.42 73.2255 46.35 73.0855 46.21C72.7655 45.47 72.5105 44.38 72.3205 42.94C71.9005 43.94 71.3955 44.755 70.8055 45.385C70.2255 46.015 69.7005 46.33 69.2305 46.33C68.3305 46.33 67.8805 45.765 67.8805 44.635C67.8805 43.985 68.0105 43.36 68.2705 42.76C68.5305 42.16 68.8805 41.635 69.3205 41.185C70.2005 40.295 71.1855 39.61 72.2755 39.13ZM70.0405 44.53C70.3605 44.53 70.7155 44.275 71.1055 43.765C71.5055 43.245 71.8605 42.515 72.1705 41.575C72.1605 41.435 72.1555 41.165 72.1555 40.765C72.1555 40.365 72.1605 40.07 72.1705 39.88C71.3105 40.37 70.6155 40.895 70.0855 41.455C69.5555 42.005 69.2905 42.655 69.2905 43.405C69.2905 44.155 69.5405 44.53 70.0405 44.53ZM76.9514 38.98C76.8114 40.31 76.7414 41.375 76.7414 42.175C76.7414 43.745 77.0364 44.53 77.6264 44.53C77.9964 44.53 78.3814 44.28 78.7814 43.78C79.1814 43.27 79.5314 42.545 79.8314 41.605C79.8214 41.445 79.8164 41.12 79.8164 40.63C79.8164 40.14 79.8614 39.64 79.9514 39.13L81.1514 38.605L81.5264 38.815C81.1964 39.785 81.0314 40.905 81.0314 42.175C81.0314 42.725 81.0714 43.48 81.1514 44.44C81.2414 45.4 81.3314 46.045 81.4214 46.375C81.4214 46.405 81.3414 46.42 81.1814 46.42C81.0314 46.42 80.8864 46.35 80.7464 46.21C80.4464 45.49 80.1914 44.405 79.9814 42.955C79.5714 43.945 79.0714 44.755 78.4814 45.385C77.9014 46.015 77.3514 46.33 76.8314 46.33C76.0314 46.33 75.6314 45.765 75.6314 44.635C75.6314 43.865 75.6714 43.14 75.7514 42.46C75.8414 41.78 75.9264 41.135 76.0064 40.525C76.0964 39.915 76.1614 39.45 76.2014 39.13C76.2514 39.08 76.3514 39.035 76.5014 38.995C76.6514 38.945 76.7614 38.92 76.8314 38.92C76.9114 38.92 76.9514 38.94 76.9514 38.98ZM87.1325 39.145L86.6825 40.195C86.1925 40.295 85.6925 40.35 85.1825 40.36C84.9925 43.02 84.7425 44.94 84.4325 46.12C84.3125 46.26 84.1025 46.33 83.8025 46.33C83.7325 46.33 83.6975 46.315 83.6975 46.285C83.9175 44.865 84.0275 43.485 84.0275 42.145C84.0275 41.655 84.0125 41.05 83.9825 40.33C83.4525 40.27 83.0375 40.2 82.7375 40.12C82.6775 40.09 82.6125 39.99 82.5425 39.82C82.4825 39.64 82.4475 39.5 82.4375 39.4L82.4975 39.31C82.8875 39.39 83.3675 39.43 83.9375 39.43C83.8775 38.33 83.8225 37.59 83.7725 37.21L84.1325 36.955L85.3475 37.6L85.2575 39.355C85.7875 39.295 86.3625 39.145 86.9825 38.905L87.1325 39.145ZM89.5547 39.31C89.5747 39.61 89.5847 39.92 89.5847 40.24C89.5847 41.98 89.2797 43.895 88.6697 45.985C88.5297 46.125 88.3397 46.195 88.0997 46.195C88.0497 46.195 88.0147 46.19 87.9947 46.18C87.9847 46.17 87.9847 46.155 87.9947 46.135C88.2347 44.705 88.3547 43.39 88.3547 42.19C88.3547 40.99 88.2297 39.91 87.9797 38.95L88.3397 38.725L89.5547 39.31ZM88.9397 37.825C88.6897 37.825 88.4947 37.74 88.3547 37.57C88.2247 37.4 88.1597 37.185 88.1597 36.925C88.1597 36.665 88.2747 36.44 88.5047 36.25C88.7347 36.05 89.0697 35.92 89.5097 35.86C89.8097 36.11 89.9597 36.41 89.9597 36.76C89.9597 37.1 89.8547 37.365 89.6447 37.555C89.4347 37.735 89.1997 37.825 88.9397 37.825ZM95.0214 39.37L94.5714 40.405C94.0514 40.515 93.5414 40.57 93.0414 40.57C92.9514 42.69 92.7214 44.965 92.3514 47.395C92.1814 47.565 91.9714 47.65 91.7214 47.65C91.6414 47.65 91.6014 47.625 91.6014 47.575C91.8514 45.625 91.9764 43.56 91.9764 41.38C91.9764 40.99 91.9714 40.705 91.9614 40.525C91.6514 40.505 91.2864 40.44 90.8664 40.33C90.7964 40.3 90.7314 40.2 90.6714 40.03C90.6114 39.86 90.5764 39.72 90.5664 39.61L90.6114 39.52C91.0114 39.6 91.4514 39.64 91.9314 39.64C91.9214 39.48 91.8664 38.885 91.7664 37.855C91.8464 37.415 92.1464 36.95 92.6664 36.46C93.1964 35.97 94.0114 35.59 95.1114 35.32L95.4714 35.59L95.1264 36.88C94.6864 36.69 94.3264 36.595 94.0464 36.595C93.4064 36.595 93.0864 37.245 93.0864 38.545C93.0864 38.655 93.0814 38.83 93.0714 39.07C93.0714 39.3 93.0714 39.475 93.0714 39.595C93.6614 39.525 94.2664 39.365 94.8864 39.115L95.0214 39.37ZM97.1077 38.98C96.9677 40.31 96.8977 41.375 96.8977 42.175C96.8977 43.745 97.1927 44.53 97.7827 44.53C98.1527 44.53 98.5377 44.28 98.9377 43.78C99.3377 43.27 99.6877 42.545 99.9877 41.605C99.9777 41.445 99.9727 41.12 99.9727 40.63C99.9727 40.14 100.018 39.64 100.108 39.13L101.308 38.605L101.683 38.815C101.353 39.785 101.188 40.905 101.188 42.175C101.188 42.725 101.228 43.48 101.308 44.44C101.398 45.4 101.488 46.045 101.578 46.375C101.578 46.405 101.498 46.42 101.338 46.42C101.188 46.42 101.043 46.35 100.903 46.21C100.603 45.49 100.348 44.405 100.138 42.955C99.7277 43.945 99.2277 44.755 98.6377 45.385C98.0577 46.015 97.5077 46.33 96.9877 46.33C96.1877 46.33 95.7877 45.765 95.7877 44.635C95.7877 43.865 95.8277 43.14 95.9077 42.46C95.9977 41.78 96.0827 41.135 96.1627 40.525C96.2527 39.915 96.3177 39.45 96.3577 39.13C96.4077 39.08 96.5077 39.035 96.6577 38.995C96.8077 38.945 96.9177 38.92 96.9877 38.92C97.0677 38.92 97.1077 38.94 97.1077 38.98ZM103.779 35.32L104.979 35.89C105.089 36.63 105.144 37.435 105.144 38.305C105.144 39.165 105.094 40.085 104.994 41.065C104.784 43.045 104.484 44.76 104.094 46.21C104.034 46.28 103.929 46.34 103.779 46.39C103.629 46.44 103.509 46.465 103.419 46.465C103.329 46.465 103.284 46.44 103.284 46.39C103.754 44.39 103.989 42.415 103.989 40.465C103.989 38.515 103.794 36.88 103.404 35.56L103.779 35.32ZM111.376 38.725L112.576 39.325C112.676 40.015 112.726 40.605 112.726 41.095C112.726 41.575 112.721 41.915 112.711 42.115C113.121 41.095 113.621 40.26 114.211 39.61C114.811 38.96 115.351 38.635 115.831 38.635C116.741 38.635 117.196 39.2 117.196 40.33C117.196 41.37 116.836 42.45 116.116 43.57C115.756 44.13 115.246 44.655 114.586 45.145C113.936 45.635 113.186 46.025 112.336 46.315C112.166 47.515 111.941 48.7 111.661 49.87C111.491 50.04 111.281 50.125 111.031 50.125C110.951 50.125 110.911 50.1 110.911 50.05C111.361 47.96 111.586 45.935 111.586 43.975C111.586 42.015 111.391 40.35 111.001 38.98L111.376 38.725ZM112.561 44.62H112.546L112.456 45.475C113.546 45.095 114.371 44.52 114.931 43.75C115.501 42.98 115.786 42.235 115.786 41.515C115.786 40.795 115.536 40.435 115.036 40.435C114.636 40.435 114.196 40.805 113.716 41.545C113.236 42.285 112.851 43.31 112.561 44.62ZM123.962 39.145L123.242 39.97C123.802 40.65 124.082 41.505 124.082 42.535C124.082 43.985 123.617 45.1 122.687 45.88C122.197 46.29 121.592 46.495 120.872 46.495C120.162 46.495 119.552 46.21 119.042 45.64C118.542 45.07 118.292 44.285 118.292 43.285C118.292 42.235 118.682 41.28 119.462 40.42C119.872 39.97 120.447 39.595 121.187 39.295C121.937 38.995 122.807 38.805 123.797 38.725L123.962 39.145ZM121.097 45.13C121.707 45.13 122.212 44.87 122.612 44.35C123.022 43.83 123.227 43.29 123.227 42.73C123.227 41.52 122.952 40.585 122.402 39.925C121.632 40.055 120.982 40.4 120.452 40.96C119.922 41.52 119.657 42.155 119.657 42.865C119.657 43.575 119.782 44.13 120.032 44.53C120.292 44.93 120.647 45.13 121.097 45.13ZM130.526 40.48C130.416 40.94 130.196 41.355 129.866 41.725C129.536 42.095 129.161 42.39 128.741 42.61C127.971 43.01 127.296 43.265 126.716 43.375C126.756 43.875 126.886 44.245 127.106 44.485C127.326 44.725 127.591 44.845 127.901 44.845C128.781 44.845 129.576 44.105 130.286 42.625C130.296 42.565 130.346 42.535 130.436 42.535C130.526 42.535 130.661 42.605 130.841 42.745C130.411 43.785 129.881 44.645 129.251 45.325C128.631 45.995 128.011 46.33 127.391 46.33C126.771 46.33 126.286 46.105 125.936 45.655C125.596 45.205 125.426 44.6 125.426 43.84C125.426 42.79 125.711 41.82 126.281 40.93C126.591 40.45 127.026 40.03 127.586 39.67C128.156 39.3 128.831 39.025 129.611 38.845C130.221 39.055 130.526 39.6 130.526 40.48ZM128.771 40.03C128.351 40.03 127.916 40.275 127.466 40.765C127.016 41.245 126.766 41.915 126.716 42.775C127.546 42.555 128.181 42.235 128.621 41.815C129.071 41.385 129.296 40.965 129.296 40.555C129.296 40.405 129.251 40.28 129.161 40.18C129.071 40.08 128.941 40.03 128.771 40.03ZM136.102 39.145L135.652 40.195C135.162 40.295 134.662 40.35 134.152 40.36C133.962 43.02 133.712 44.94 133.402 46.12C133.282 46.26 133.072 46.33 132.772 46.33C132.702 46.33 132.667 46.315 132.667 46.285C132.887 44.865 132.997 43.485 132.997 42.145C132.997 41.655 132.982 41.05 132.952 40.33C132.422 40.27 132.007 40.2 131.707 40.12C131.647 40.09 131.582 39.99 131.512 39.82C131.452 39.64 131.417 39.5 131.407 39.4L131.467 39.31C131.857 39.39 132.337 39.43 132.907 39.43C132.847 38.33 132.792 37.59 132.742 37.21L133.102 36.955L134.317 37.6L134.227 39.355C134.757 39.295 135.332 39.145 135.952 38.905L136.102 39.145ZM141.194 39.04L140.834 40.765C140.704 40.725 140.529 40.705 140.309 40.705C140.089 40.705 139.879 40.775 139.679 40.915C139.479 41.055 139.294 41.295 139.124 41.635C138.954 41.975 138.809 42.33 138.689 42.7C138.569 43.07 138.449 43.465 138.329 43.885C138.209 44.305 138.109 44.655 138.029 44.935C137.959 45.205 137.814 45.635 137.594 46.225C137.464 46.375 137.279 46.45 137.039 46.45C136.959 46.45 136.919 46.43 136.919 46.39C137.179 45.12 137.309 43.86 137.309 42.61C137.309 41.35 137.154 40.14 136.844 38.98L137.204 38.725L138.419 39.37C138.489 40.09 138.524 40.725 138.524 41.275V41.485C139.144 40.035 139.929 39.125 140.879 38.755L141.194 39.04ZM147.241 38.89L147.226 38.98C146.216 40.64 145.361 42.955 144.661 45.925C144.101 48.325 142.991 49.77 141.331 50.26L140.956 49.99L141.316 48.535C141.516 48.565 141.686 48.58 141.826 48.58C142.766 48.58 143.461 47.81 143.911 46.27C143.691 46.41 143.516 46.48 143.386 46.48C143.256 46.48 143.151 46.46 143.071 46.42C142.691 45.63 142.356 44.615 142.066 43.375C141.776 42.125 141.631 41 141.631 40C141.631 39.58 141.656 39.24 141.706 38.98L142.081 38.725L143.281 39.325C143.101 40.075 143.011 40.92 143.011 41.86C143.011 42.79 143.141 43.96 143.401 45.37C143.691 44.36 144.141 43.255 144.751 42.055C145.361 40.845 145.961 39.84 146.551 39.04C146.741 38.9 146.956 38.83 147.196 38.83C147.226 38.83 147.241 38.85 147.241 38.89ZM161.334 38.89L161.304 38.98C160.744 39.98 160.239 41.1 159.789 42.34C159.349 43.58 159.054 44.765 158.904 45.895L157.899 46.42C157.649 46.42 157.459 46.35 157.329 46.21C156.709 44.73 156.289 43.14 156.069 41.44C155.429 43.04 155.024 44.525 154.854 45.895L153.849 46.42C153.599 46.42 153.409 46.35 153.279 46.21C152.929 45.39 152.614 44.395 152.334 43.225C152.064 42.045 151.929 40.97 151.929 40C151.929 39.58 151.954 39.24 152.004 38.98L152.379 38.725L153.579 39.325C153.399 40.075 153.309 40.92 153.309 41.86C153.309 42.79 153.439 43.95 153.699 45.34C153.919 44.51 154.239 43.61 154.659 42.64C155.079 41.67 155.519 40.79 155.979 40C155.979 39.58 156.004 39.24 156.054 38.98L156.429 38.725L157.629 39.325C157.449 40.075 157.359 40.895 157.359 41.785C157.359 42.665 157.489 43.845 157.749 45.325C158.029 44.305 158.444 43.2 158.994 42.01C159.554 40.81 160.104 39.82 160.644 39.04C160.824 38.9 161.034 38.83 161.274 38.83C161.314 38.83 161.334 38.85 161.334 38.89ZM163.632 39.31C163.652 39.61 163.662 39.92 163.662 40.24C163.662 41.98 163.357 43.895 162.747 45.985C162.607 46.125 162.417 46.195 162.177 46.195C162.127 46.195 162.092 46.19 162.072 46.18C162.062 46.17 162.062 46.155 162.072 46.135C162.312 44.705 162.432 43.39 162.432 42.19C162.432 40.99 162.307 39.91 162.057 38.95L162.417 38.725L163.632 39.31ZM163.017 37.825C162.767 37.825 162.572 37.74 162.432 37.57C162.302 37.4 162.237 37.185 162.237 36.925C162.237 36.665 162.352 36.44 162.582 36.25C162.812 36.05 163.147 35.92 163.587 35.86C163.887 36.11 164.037 36.41 164.037 36.76C164.037 37.1 163.932 37.365 163.722 37.555C163.512 37.735 163.277 37.825 163.017 37.825ZM169.384 39.145L168.934 40.195C168.444 40.295 167.944 40.35 167.434 40.36C167.244 43.02 166.994 44.94 166.684 46.12C166.564 46.26 166.354 46.33 166.054 46.33C165.984 46.33 165.949 46.315 165.949 46.285C166.169 44.865 166.279 43.485 166.279 42.145C166.279 41.655 166.264 41.05 166.234 40.33C165.704 40.27 165.289 40.2 164.989 40.12C164.929 40.09 164.864 39.99 164.794 39.82C164.734 39.64 164.699 39.5 164.689 39.4L164.749 39.31C165.139 39.39 165.619 39.43 166.189 39.43C166.129 38.33 166.074 37.59 166.024 37.21L166.384 36.955L167.599 37.6L167.509 39.355C168.039 39.295 168.614 39.145 169.234 38.905L169.384 39.145ZM174.476 46.285C174.616 44.935 174.686 43.865 174.686 43.075C174.686 41.505 174.391 40.72 173.801 40.72C173.361 40.72 172.901 41.085 172.421 41.815C171.951 42.545 171.561 43.575 171.251 44.905H171.236C171.186 45.155 171.091 45.59 170.951 46.21C170.891 46.28 170.791 46.34 170.651 46.39C170.521 46.44 170.411 46.465 170.321 46.465C170.241 46.465 170.201 46.44 170.201 46.39C170.651 44.3 170.876 42.305 170.876 40.405C170.876 38.495 170.681 36.88 170.291 35.56L170.666 35.32L171.866 35.89C171.966 36.56 172.016 37.36 172.016 38.29C172.016 39.21 171.936 40.3 171.776 41.56C172.196 40.76 172.656 40.12 173.156 39.64C173.666 39.16 174.146 38.92 174.596 38.92C175.396 38.92 175.796 39.485 175.796 40.615C175.796 41.545 175.711 42.625 175.541 43.855C175.371 45.075 175.271 45.83 175.241 46.12C175.101 46.26 174.881 46.33 174.581 46.33C174.511 46.33 174.476 46.315 174.476 46.285ZM185.702 39.145L185.252 40.195C184.762 40.295 184.262 40.35 183.752 40.36C183.562 43.02 183.312 44.94 183.002 46.12C182.882 46.26 182.672 46.33 182.372 46.33C182.302 46.33 182.267 46.315 182.267 46.285C182.487 44.865 182.597 43.485 182.597 42.145C182.597 41.655 182.582 41.05 182.552 40.33C182.022 40.27 181.607 40.2 181.307 40.12C181.247 40.09 181.182 39.99 181.112 39.82C181.052 39.64 181.017 39.5 181.007 39.4L181.067 39.31C181.457 39.39 181.937 39.43 182.507 39.43C182.447 38.33 182.392 37.59 182.342 37.21L182.702 36.955L183.917 37.6L183.827 39.355C184.357 39.295 184.932 39.145 185.552 38.905L185.702 39.145ZM190.794 46.285C190.934 44.935 191.004 43.865 191.004 43.075C191.004 41.505 190.709 40.72 190.119 40.72C189.679 40.72 189.219 41.085 188.739 41.815C188.269 42.545 187.879 43.575 187.569 44.905H187.554C187.504 45.155 187.409 45.59 187.269 46.21C187.209 46.28 187.109 46.34 186.969 46.39C186.839 46.44 186.729 46.465 186.639 46.465C186.559 46.465 186.519 46.44 186.519 46.39C186.969 44.3 187.194 42.305 187.194 40.405C187.194 38.495 186.999 36.88 186.609 35.56L186.984 35.32L188.184 35.89C188.284 36.56 188.334 37.36 188.334 38.29C188.334 39.21 188.254 40.3 188.094 41.56C188.514 40.76 188.974 40.12 189.474 39.64C189.984 39.16 190.464 38.92 190.914 38.92C191.714 38.92 192.114 39.485 192.114 40.615C192.114 41.545 192.029 42.625 191.859 43.855C191.689 45.075 191.589 45.83 191.559 46.12C191.419 46.26 191.199 46.33 190.899 46.33C190.829 46.33 190.794 46.315 190.794 46.285ZM198.626 40.48C198.516 40.94 198.296 41.355 197.966 41.725C197.636 42.095 197.261 42.39 196.841 42.61C196.071 43.01 195.396 43.265 194.816 43.375C194.856 43.875 194.986 44.245 195.206 44.485C195.426 44.725 195.691 44.845 196.001 44.845C196.881 44.845 197.676 44.105 198.386 42.625C198.396 42.565 198.446 42.535 198.536 42.535C198.626 42.535 198.761 42.605 198.941 42.745C198.511 43.785 197.981 44.645 197.351 45.325C196.731 45.995 196.111 46.33 195.491 46.33C194.871 46.33 194.386 46.105 194.036 45.655C193.696 45.205 193.526 44.6 193.526 43.84C193.526 42.79 193.811 41.82 194.381 40.93C194.691 40.45 195.126 40.03 195.686 39.67C196.256 39.3 196.931 39.025 197.711 38.845C198.321 39.055 198.626 39.6 198.626 40.48ZM196.871 40.03C196.451 40.03 196.016 40.275 195.566 40.765C195.116 41.245 194.866 41.915 194.816 42.775C195.646 42.555 196.281 42.235 196.721 41.815C197.171 41.385 197.396 40.965 197.396 40.555C197.396 40.405 197.351 40.28 197.261 40.18C197.171 40.08 197.041 40.03 196.871 40.03ZM34.2 56.89L34.17 56.98C33.61 57.98 33.105 59.1 32.655 60.34C32.215 61.58 31.92 62.765 31.77 63.895L30.765 64.42C30.515 64.42 30.325 64.35 30.195 64.21C29.575 62.73 29.155 61.14 28.935 59.44C28.295 61.04 27.89 62.525 27.72 63.895L26.715 64.42C26.465 64.42 26.275 64.35 26.145 64.21C25.795 63.39 25.48 62.395 25.2 61.225C24.93 60.045 24.795 58.97 24.795 58C24.795 57.58 24.82 57.24 24.87 56.98L25.245 56.725L26.445 57.325C26.265 58.075 26.175 58.92 26.175 59.86C26.175 60.79 26.305 61.95 26.565 63.34C26.785 62.51 27.105 61.61 27.525 60.64C27.945 59.67 28.385 58.79 28.845 58C28.845 57.58 28.87 57.24 28.92 56.98L29.295 56.725L30.495 57.325C30.315 58.075 30.225 58.895 30.225 59.785C30.225 60.665 30.355 61.845 30.615 63.325C30.895 62.305 31.31 61.2 31.86 60.01C32.42 58.81 32.97 57.82 33.51 57.04C33.69 56.9 33.9 56.83 34.14 56.83C34.18 56.83 34.2 56.85 34.2 56.89ZM40.173 57.145L39.453 57.97C40.013 58.65 40.293 59.505 40.293 60.535C40.293 61.985 39.828 63.1 38.898 63.88C38.408 64.29 37.803 64.495 37.083 64.495C36.373 64.495 35.763 64.21 35.253 63.64C34.753 63.07 34.503 62.285 34.503 61.285C34.503 60.235 34.893 59.28 35.673 58.42C36.083 57.97 36.658 57.595 37.398 57.295C38.148 56.995 39.018 56.805 40.008 56.725L40.173 57.145ZM37.308 63.13C37.918 63.13 38.423 62.87 38.823 62.35C39.233 61.83 39.438 61.29 39.438 60.73C39.438 59.52 39.163 58.585 38.613 57.925C37.843 58.055 37.193 58.4 36.663 58.96C36.133 59.52 35.868 60.155 35.868 60.865C35.868 61.575 35.993 62.13 36.243 62.53C36.503 62.93 36.858 63.13 37.308 63.13ZM46.3165 57.04L45.9565 58.765C45.8265 58.725 45.6515 58.705 45.4315 58.705C45.2115 58.705 45.0015 58.775 44.8015 58.915C44.6015 59.055 44.4165 59.295 44.2465 59.635C44.0765 59.975 43.9315 60.33 43.8115 60.7C43.6915 61.07 43.5715 61.465 43.4515 61.885C43.3315 62.305 43.2315 62.655 43.1515 62.935C43.0815 63.205 42.9365 63.635 42.7165 64.225C42.5865 64.375 42.4015 64.45 42.1615 64.45C42.0815 64.45 42.0415 64.43 42.0415 64.39C42.3015 63.12 42.4315 61.86 42.4315 60.61C42.4315 59.35 42.2765 58.14 41.9665 56.98L42.3265 56.725L43.5415 57.37C43.6115 58.09 43.6465 58.725 43.6465 59.275V59.485C44.2665 58.035 45.0515 57.125 46.0015 56.755L46.3165 57.04ZM47.353 53.32L48.553 53.89C48.663 54.63 48.718 55.435 48.718 56.305C48.718 57.165 48.668 58.085 48.568 59.065C48.358 61.045 48.058 62.76 47.668 64.21C47.608 64.28 47.503 64.34 47.353 64.39C47.203 64.44 47.083 64.465 46.993 64.465C46.903 64.465 46.858 64.44 46.858 64.39C47.328 62.39 47.563 60.415 47.563 58.465C47.563 56.515 47.368 54.88 46.978 53.56L47.353 53.32ZM54.2258 53.89L55.4258 53.32L55.8008 53.56C55.4108 54.88 55.2158 56.495 55.2158 58.405C55.2158 60.305 55.4408 62.3 55.8908 64.39C55.8908 64.44 55.8508 64.465 55.7708 64.465C55.5108 64.465 55.3058 64.38 55.1558 64.21C54.9158 63.28 54.6858 62.125 54.4658 60.745C54.0558 61.795 53.5508 62.655 52.9508 63.325C52.3508 63.995 51.7808 64.33 51.2408 64.33C50.8108 64.33 50.4858 64.18 50.2658 63.88C50.0558 63.57 49.9508 63.125 49.9508 62.545C49.9508 61.965 50.0758 61.34 50.3258 60.67C50.5858 60 51.0408 59.315 51.6908 58.615C52.3408 57.905 53.1408 57.34 54.0908 56.92C54.0808 56.69 54.0758 56.3 54.0758 55.75C54.0758 55.19 54.1258 54.57 54.2258 53.89ZM54.2858 59.44C54.2058 58.68 54.1558 58.11 54.1358 57.73C53.5058 58.01 52.9708 58.38 52.5308 58.84C51.7508 59.67 51.3608 60.53 51.3608 61.42C51.3608 62.16 51.6108 62.53 52.1108 62.53C52.4408 62.53 52.8058 62.26 53.2058 61.72C53.6158 61.18 53.9758 60.42 54.2858 59.44ZM57.9756 64.42C57.6856 64.42 57.4606 64.325 57.3006 64.135C57.1406 63.945 57.0606 63.705 57.0606 63.415C57.0606 63.115 57.1956 62.855 57.4656 62.635C57.7356 62.405 58.1156 62.255 58.6056 62.185C58.9556 62.455 59.1306 62.795 59.1306 63.205C59.1306 63.605 59.0106 63.905 58.7706 64.105C58.5306 64.315 58.2656 64.42 57.9756 64.42ZM65.8984 60.205L65.8834 59.86C65.6434 59.83 65.3434 59.77 64.9834 59.68C64.8334 59.54 64.7584 59.335 64.7584 59.065C64.7584 58.975 64.7734 58.93 64.8034 58.93C64.8434 58.93 64.9084 58.94 64.9984 58.96C65.2084 59.03 65.4984 59.085 65.8684 59.125C65.8284 58.365 65.7434 57.6 65.6134 56.83C65.4934 56.05 65.3834 55.46 65.2834 55.06L65.1334 54.46L66.4384 53.845L66.8284 54.085C66.9784 54.975 67.0534 55.855 67.0534 56.725C67.0534 57.595 67.0284 58.405 66.9784 59.155C68.3284 59.095 69.4484 58.865 70.3384 58.465C70.3284 58.255 70.3234 57.78 70.3234 57.04C70.3234 56.29 70.4184 55.305 70.6084 54.085L70.9984 53.845L72.2734 54.46C71.8134 55.64 71.5834 57.455 71.5834 59.905C71.5834 61.725 71.6584 63.245 71.8084 64.465C71.8084 64.495 71.7684 64.51 71.6884 64.51C71.4284 64.51 71.2334 64.435 71.1034 64.285C70.7434 62.455 70.5134 60.9 70.4134 59.62C69.3534 59.84 68.3784 59.95 67.4884 59.95H66.9184C66.8084 61.11 66.6134 62.53 66.3334 64.21C66.2634 64.29 66.1484 64.355 65.9884 64.405C65.8384 64.465 65.7084 64.495 65.5984 64.495C65.4984 64.495 65.4484 64.47 65.4484 64.42L65.4934 64.255C65.7634 63.265 65.8984 61.915 65.8984 60.205ZM77.7833 57.13L78.9983 56.605L79.3583 56.815C79.0283 57.785 78.8633 58.905 78.8633 60.175C78.8633 60.715 78.9083 61.465 78.9983 62.425C79.0883 63.385 79.1733 64.035 79.2533 64.375C79.2533 64.405 79.1783 64.42 79.0283 64.42C78.8783 64.42 78.7333 64.35 78.5933 64.21C78.2733 63.47 78.0183 62.38 77.8283 60.94C77.4083 61.94 76.9033 62.755 76.3133 63.385C75.7333 64.015 75.2083 64.33 74.7383 64.33C73.8383 64.33 73.3883 63.765 73.3883 62.635C73.3883 61.985 73.5183 61.36 73.7783 60.76C74.0383 60.16 74.3883 59.635 74.8283 59.185C75.7083 58.295 76.6933 57.61 77.7833 57.13ZM75.5483 62.53C75.8683 62.53 76.2233 62.275 76.6133 61.765C77.0133 61.245 77.3683 60.515 77.6783 59.575C77.6683 59.435 77.6633 59.165 77.6633 58.765C77.6633 58.365 77.6683 58.07 77.6783 57.88C76.8183 58.37 76.1233 58.895 75.5933 59.455C75.0633 60.005 74.7983 60.655 74.7983 61.405C74.7983 62.155 75.0483 62.53 75.5483 62.53ZM81.2292 56.725L82.4292 57.325C82.5292 58.015 82.5792 58.605 82.5792 59.095C82.5792 59.575 82.5742 59.915 82.5642 60.115C82.9742 59.095 83.4742 58.26 84.0642 57.61C84.6642 56.96 85.2042 56.635 85.6842 56.635C86.5942 56.635 87.0492 57.2 87.0492 58.33C87.0492 59.37 86.6892 60.45 85.9692 61.57C85.6092 62.13 85.0992 62.655 84.4392 63.145C83.7892 63.635 83.0392 64.025 82.1892 64.315C82.0192 65.515 81.7942 66.7 81.5142 67.87C81.3442 68.04 81.1342 68.125 80.8842 68.125C80.8042 68.125 80.7642 68.1 80.7642 68.05C81.2142 65.96 81.4392 63.935 81.4392 61.975C81.4392 60.015 81.2442 58.35 80.8542 56.98L81.2292 56.725ZM82.4142 62.62H82.3992L82.3092 63.475C83.3992 63.095 84.2242 62.52 84.7842 61.75C85.3542 60.98 85.6392 60.235 85.6392 59.515C85.6392 58.795 85.3892 58.435 84.8892 58.435C84.4892 58.435 84.0492 58.805 83.5692 59.545C83.0892 60.285 82.7042 61.31 82.4142 62.62ZM88.6706 56.725L89.8706 57.325C89.9706 58.015 90.0206 58.605 90.0206 59.095C90.0206 59.575 90.0156 59.915 90.0056 60.115C90.4156 59.095 90.9156 58.26 91.5056 57.61C92.1056 56.96 92.6456 56.635 93.1256 56.635C94.0356 56.635 94.4906 57.2 94.4906 58.33C94.4906 59.37 94.1306 60.45 93.4106 61.57C93.0506 62.13 92.5406 62.655 91.8806 63.145C91.2306 63.635 90.4806 64.025 89.6306 64.315C89.4606 65.515 89.2356 66.7 88.9556 67.87C88.7856 68.04 88.5756 68.125 88.3256 68.125C88.2456 68.125 88.2056 68.1 88.2056 68.05C88.6556 65.96 88.8806 63.935 88.8806 61.975C88.8806 60.015 88.6856 58.35 88.2956 56.98L88.6706 56.725ZM89.8556 62.62H89.8406L89.7506 63.475C90.8406 63.095 91.6656 62.52 92.2256 61.75C92.7956 60.98 93.0806 60.235 93.0806 59.515C93.0806 58.795 92.8306 58.435 92.3306 58.435C91.9306 58.435 91.4906 58.805 91.0106 59.545C90.5306 60.285 90.1456 61.31 89.8556 62.62ZM101.362 56.89L101.347 56.98C100.337 58.64 99.482 60.955 98.782 63.925C98.222 66.325 97.112 67.77 95.452 68.26L95.077 67.99L95.437 66.535C95.637 66.565 95.807 66.58 95.947 66.58C96.887 66.58 97.582 65.81 98.032 64.27C97.812 64.41 97.637 64.48 97.507 64.48C97.377 64.48 97.272 64.46 97.192 64.42C96.812 63.63 96.477 62.615 96.187 61.375C95.897 60.125 95.752 59 95.752 58C95.752 57.58 95.777 57.24 95.827 56.98L96.202 56.725L97.402 57.325C97.222 58.075 97.132 58.92 97.132 59.86C97.132 60.79 97.262 61.96 97.522 63.37C97.812 62.36 98.262 61.255 98.872 60.055C99.482 58.845 100.082 57.84 100.672 57.04C100.862 56.9 101.077 56.83 101.317 56.83C101.347 56.83 101.362 56.85 101.362 56.89ZM115.455 56.89L115.425 56.98C114.865 57.98 114.36 59.1 113.91 60.34C113.47 61.58 113.175 62.765 113.025 63.895L112.02 64.42C111.77 64.42 111.58 64.35 111.45 64.21C110.83 62.73 110.41 61.14 110.19 59.44C109.55 61.04 109.145 62.525 108.975 63.895L107.97 64.42C107.72 64.42 107.53 64.35 107.4 64.21C107.05 63.39 106.735 62.395 106.455 61.225C106.185 60.045 106.05 58.97 106.05 58C106.05 57.58 106.075 57.24 106.125 56.98L106.5 56.725L107.7 57.325C107.52 58.075 107.43 58.92 107.43 59.86C107.43 60.79 107.56 61.95 107.82 63.34C108.04 62.51 108.36 61.61 108.78 60.64C109.2 59.67 109.64 58.79 110.1 58C110.1 57.58 110.125 57.24 110.175 56.98L110.55 56.725L111.75 57.325C111.57 58.075 111.48 58.895 111.48 59.785C111.48 60.665 111.61 61.845 111.87 63.325C112.15 62.305 112.565 61.2 113.115 60.01C113.675 58.81 114.225 57.82 114.765 57.04C114.945 56.9 115.155 56.83 115.395 56.83C115.435 56.83 115.455 56.85 115.455 56.89ZM120.423 57.04L120.063 58.765C119.933 58.725 119.758 58.705 119.538 58.705C119.318 58.705 119.108 58.775 118.908 58.915C118.708 59.055 118.523 59.295 118.353 59.635C118.183 59.975 118.038 60.33 117.918 60.7C117.798 61.07 117.678 61.465 117.558 61.885C117.438 62.305 117.338 62.655 117.258 62.935C117.188 63.205 117.043 63.635 116.823 64.225C116.693 64.375 116.508 64.45 116.268 64.45C116.188 64.45 116.148 64.43 116.148 64.39C116.408 63.12 116.538 61.86 116.538 60.61C116.538 59.35 116.383 58.14 116.073 56.98L116.433 56.725L117.648 57.37C117.718 58.09 117.753 58.725 117.753 59.275V59.485C118.373 58.035 119.158 57.125 120.108 56.755L120.423 57.04ZM122.689 57.31C122.709 57.61 122.719 57.92 122.719 58.24C122.719 59.98 122.414 61.895 121.804 63.985C121.664 64.125 121.474 64.195 121.234 64.195C121.184 64.195 121.149 64.19 121.129 64.18C121.119 64.17 121.119 64.155 121.129 64.135C121.369 62.705 121.489 61.39 121.489 60.19C121.489 58.99 121.364 57.91 121.114 56.95L121.474 56.725L122.689 57.31ZM122.074 55.825C121.824 55.825 121.629 55.74 121.489 55.57C121.359 55.4 121.294 55.185 121.294 54.925C121.294 54.665 121.409 54.44 121.639 54.25C121.869 54.05 122.204 53.92 122.644 53.86C122.944 54.11 123.094 54.41 123.094 54.76C123.094 55.1 122.989 55.365 122.779 55.555C122.569 55.735 122.334 55.825 122.074 55.825ZM128.441 57.145L127.991 58.195C127.501 58.295 127.001 58.35 126.491 58.36C126.301 61.02 126.051 62.94 125.741 64.12C125.621 64.26 125.411 64.33 125.111 64.33C125.041 64.33 125.006 64.315 125.006 64.285C125.226 62.865 125.336 61.485 125.336 60.145C125.336 59.655 125.321 59.05 125.291 58.33C124.761 58.27 124.346 58.2 124.046 58.12C123.986 58.09 123.921 57.99 123.851 57.82C123.791 57.64 123.756 57.5 123.746 57.4L123.806 57.31C124.196 57.39 124.676 57.43 125.246 57.43C125.186 56.33 125.131 55.59 125.081 55.21L125.441 54.955L126.656 55.6L126.566 57.355C127.096 57.295 127.671 57.145 128.291 56.905L128.441 57.145ZM130.863 57.31C130.883 57.61 130.893 57.92 130.893 58.24C130.893 59.98 130.588 61.895 129.978 63.985C129.838 64.125 129.648 64.195 129.408 64.195C129.358 64.195 129.323 64.19 129.303 64.18C129.293 64.17 129.293 64.155 129.303 64.135C129.543 62.705 129.663 61.39 129.663 60.19C129.663 58.99 129.538 57.91 129.288 56.95L129.648 56.725L130.863 57.31ZM130.248 55.825C129.998 55.825 129.803 55.74 129.663 55.57C129.533 55.4 129.468 55.185 129.468 54.925C129.468 54.665 129.583 54.44 129.813 54.25C130.043 54.05 130.378 53.92 130.818 53.86C131.118 54.11 131.268 54.41 131.268 54.76C131.268 55.1 131.163 55.365 130.953 55.555C130.743 55.735 130.508 55.825 130.248 55.825ZM132.79 64.135C133.03 62.875 133.15 61.73 133.15 60.7C133.15 59.67 133.11 58.945 133.03 58.525C132.96 58.095 132.88 57.735 132.79 57.445C132.71 57.155 132.665 56.99 132.655 56.95L133.015 56.725L134.23 57.31C134.31 57.89 134.35 58.375 134.35 58.765C134.35 59.155 134.345 59.44 134.335 59.62C134.755 58.8 135.22 58.145 135.73 57.655C136.24 57.165 136.71 56.92 137.14 56.92C137.97 56.92 138.385 57.485 138.385 58.615C138.385 59.495 138.3 60.55 138.13 61.78C137.96 63 137.855 63.78 137.815 64.12C137.695 64.26 137.475 64.33 137.155 64.33C137.085 64.33 137.05 64.315 137.05 64.285C137.2 63.005 137.275 61.935 137.275 61.075C137.275 59.505 136.98 58.72 136.39 58.72C135.94 58.72 135.475 59.085 134.995 59.815C134.525 60.545 134.14 61.575 133.84 62.905H133.81C133.67 63.385 133.555 63.745 133.465 63.985C133.325 64.125 133.175 64.195 133.015 64.195C132.865 64.195 132.79 64.175 132.79 64.135ZM143.906 57.13L144.776 56.725L145.151 56.98C145.161 57.18 145.166 57.595 145.166 58.225C145.166 59.795 144.916 61.685 144.416 63.895C144.176 64.995 143.681 65.975 142.931 66.835C142.551 67.265 142.091 67.61 141.551 67.87C141.011 68.13 140.431 68.26 139.811 68.26L139.451 67.99L139.796 66.535C140.256 66.665 140.676 66.73 141.056 66.73C142.916 66.73 143.861 64.805 143.891 60.955C143.461 61.955 142.981 62.745 142.451 63.325C141.921 63.895 141.396 64.18 140.876 64.18C140.486 64.18 140.186 64.025 139.976 63.715C139.766 63.395 139.661 62.94 139.661 62.35C139.661 61.75 139.791 61.17 140.051 60.61C140.311 60.04 140.656 59.54 141.086 59.11C141.896 58.28 142.836 57.62 143.906 57.13ZM143.861 59.44C143.841 59.11 143.781 58.61 143.681 57.94C142.761 58.34 142.061 58.885 141.581 59.575C141.101 60.255 140.861 60.9 140.861 61.51C140.861 61.82 140.926 62.07 141.056 62.26C141.196 62.44 141.391 62.53 141.641 62.53C141.981 62.53 142.361 62.26 142.781 61.72C143.201 61.18 143.561 60.42 143.861 59.44ZM147.405 60.64C147.405 57.85 147.645 55.5 148.125 53.59L148.53 53.395L149.745 54.115C149.405 54.805 149.08 55.84 148.77 57.22C148.47 58.6 148.275 59.89 148.185 61.09C148.035 61.21 147.85 61.27 147.63 61.27C147.48 61.27 147.405 61.06 147.405 60.64ZM148.335 62.185C147.845 62.255 147.465 62.405 147.195 62.635C146.925 62.855 146.79 63.115 146.79 63.415C146.79 63.705 146.87 63.945 147.03 64.135C147.19 64.325 147.415 64.42 147.705 64.42C147.995 64.42 148.26 64.315 148.5 64.105C148.74 63.905 148.86 63.605 148.86 63.205C148.86 62.795 148.685 62.455 148.335 62.185Z" fill="white"/>
</svg>
